<svg width="100%" viewBox="0 0 680 370" xmlns="http://www.w3.org/2000/svg" font-family="sans-serif">
  <defs>
    <marker id="arrow" viewBox="0 0 10 10" refX="8" refY="5" markerWidth="6" markerHeight="6" orient="auto-start-reverse">
      <path d="M2 1L8 5L2 9" fill="none" stroke="#888780" stroke-width="1.5" stroke-linecap="round" stroke-linejoin="round"/>
    </marker>
  </defs>

  <!-- Root Bridge SW-A -->
  <rect x="270" y="20" width="140" height="56" rx="8" fill="#FAEEDA" stroke="#BA7517" stroke-width="1"/>
  <text x="340" y="44" text-anchor="middle" font-size="13" font-weight="600" fill="#633806">SW-A</text>
  <text x="340" y="63" text-anchor="middle" font-size="11" fill="#854F0B">Root Bridge · Priority 4096</text>
  <text x="340" y="90" text-anchor="middle" font-size="12" fill="#BA7517" font-weight="500">★ Root Bridge</text>

  <!-- SW-B -->
  <rect x="60" y="240" width="140" height="56" rx="8" fill="#E1F5EE" stroke="#1D9E75" stroke-width="0.8"/>
  <text x="130" y="264" text-anchor="middle" font-size="13" font-weight="600" fill="#085041">SW-B</text>
  <text x="130" y="283" text-anchor="middle" font-size="11" fill="#0F6E56">Priority 32768</text>

  <!-- SW-C -->
  <rect x="480" y="240" width="140" height="56" rx="8" fill="#E1F5EE" stroke="#1D9E75" stroke-width="0.8"/>
  <text x="550" y="264" text-anchor="middle" font-size="13" font-weight="600" fill="#085041">SW-C</text>
  <text x="550" y="283" text-anchor="middle" font-size="11" fill="#0F6E56">Priority 32768</text>

  <!-- Link A-B forwarding -->
  <line x1="290" y1="76" x2="170" y2="240" stroke="#1D9E75" stroke-width="2"/>
  <text x="205" y="148" text-anchor="middle" font-size="11" fill="#1D9E75" font-weight="600">RP</text>
  <text x="248" y="122" text-anchor="middle" font-size="11" fill="#1D9E75" font-weight="600">DP</text>

  <!-- Link A-C forwarding -->
  <line x1="390" y1="76" x2="510" y2="240" stroke="#1D9E75" stroke-width="2"/>
  <text x="465" y="148" text-anchor="middle" font-size="11" fill="#1D9E75" font-weight="600">RP</text>
  <text x="432" y="122" text-anchor="middle" font-size="11" fill="#1D9E75" font-weight="600">DP</text>

  <!-- Link B-C blocked -->
  <line x1="200" y1="268" x2="480" y2="268" stroke="#D85A30" stroke-width="2" stroke-dasharray="8 5"/>
  <circle cx="212" cy="268" r="9" fill="#FAECE7" stroke="#D85A30" stroke-width="1.2"/>
  <text x="212" y="272" text-anchor="middle" font-size="10" fill="#993C1D" font-weight="700">B</text>
  <circle cx="468" cy="268" r="9" fill="#FAECE7" stroke="#D85A30" stroke-width="1.2"/>
  <text x="468" y="272" text-anchor="middle" font-size="10" fill="#993C1D" font-weight="700">B</text>
  <text x="340" y="255" text-anchor="middle" font-size="11" fill="#D85A30">Заблокований канал (Blocking)</text>

  <!-- Legend -->
  <line x1="40" y1="338" x2="80" y2="338" stroke="#1D9E75" stroke-width="2"/>
  <text x="86" y="342" font-size="11" fill="#5F5E5A">Forwarding (активний)</text>
  <line x1="260" y1="338" x2="300" y2="338" stroke="#D85A30" stroke-width="2" stroke-dasharray="6 4"/>
  <text x="306" y="342" font-size="11" fill="#5F5E5A">Blocking (заблокований)</text>
  <text x="500" y="342" font-size="10" fill="#888780">RP = Root Port · DP = Designated Port · B = Blocked</text>
</svg>
