<svg width="100%" viewBox="0 0 680 300" xmlns="http://www.w3.org/2000/svg" font-family="sans-serif">
  <defs>
    <marker id="arr" viewBox="0 0 10 10" refX="8" refY="5" markerWidth="5" markerHeight="5" orient="auto-start-reverse">
      <path d="M2 1L8 5L2 9" fill="none" stroke="#888780" stroke-width="1.5" stroke-linecap="round" stroke-linejoin="round"/>
    </marker>
  </defs>
  <!-- Area 0 -->
  <rect x="80" y="28" width="520" height="226" rx="16" fill="none" stroke="#1D9E75" stroke-width="1.5" stroke-dasharray="8 5" opacity="0.8"/>
  <text x="340" y="20" text-anchor="middle" font-size="12" fill="#1D9E75" font-weight="600">Area 0 — Backbone</text>
  <!-- R1 DR -->
  <rect x="100" y="108" width="130" height="58" rx="8" fill="#FAEEDA" stroke="#BA7517" stroke-width="1"/>
  <text x="165" y="132" text-anchor="middle" font-size="13" font-weight="600" fill="#633806">R1</text>
  <text x="165" y="150" text-anchor="middle" font-size="11" fill="#854F0B">DR · RID 1.1.1.1</text>
  <!-- R2 BDR -->
  <rect x="275" y="52" width="130" height="58" rx="8" fill="#E6F1FB" stroke="#378ADD" stroke-width="0.8"/>
  <text x="340" y="76" text-anchor="middle" font-size="13" font-weight="600" fill="#042C53">R2</text>
  <text x="340" y="94" text-anchor="middle" font-size="11" fill="#185FA5">BDR · RID 2.2.2.2</text>
  <!-- R3 DROTHER -->
  <rect x="275" y="182" width="130" height="58" rx="8" fill="#E1F5EE" stroke="#1D9E75" stroke-width="0.8"/>
  <text x="340" y="206" text-anchor="middle" font-size="13" font-weight="600" fill="#085041">R3</text>
  <text x="340" y="224" text-anchor="middle" font-size="11" fill="#0F6E56">DROTHER · RID 3.3.3.3</text>
  <!-- R4 DROTHER -->
  <rect x="450" y="108" width="130" height="58" rx="8" fill="#E1F5EE" stroke="#1D9E75" stroke-width="0.8"/>
  <text x="515" y="132" text-anchor="middle" font-size="13" font-weight="600" fill="#085041">R4</text>
  <text x="515" y="150" text-anchor="middle" font-size="11" fill="#0F6E56">DROTHER · RID 4.4.4.4</text>
  <!-- Links -->
  <line x1="230" y1="136" x2="274" y2="98" stroke="#1D9E75" stroke-width="1.5"/>
  <text x="244" y="108" text-anchor="middle" font-size="10" fill="#5F5E5A">10.0.12.0/30</text>
  <line x1="230" y1="148" x2="274" y2="200" stroke="#1D9E75" stroke-width="1.5"/>
  <text x="244" y="186" text-anchor="middle" font-size="10" fill="#5F5E5A">10.0.13.0/30</text>
  <line x1="405" y1="82" x2="449" y2="130" stroke="#1D9E75" stroke-width="1.5"/>
  <text x="434" y="100" text-anchor="middle" font-size="10" fill="#5F5E5A">10.0.24.0/30</text>
  <line x1="405" y1="212" x2="449" y2="152" stroke="#1D9E75" stroke-width="1.5"/>
  <text x="434" y="196" text-anchor="middle" font-size="10" fill="#5F5E5A">10.0.34.0/30</text>
  <line x1="340" y1="110" x2="340" y2="182" stroke="#B4B2A9" stroke-width="0.8" stroke-dasharray="4 3"/>
  <!-- Legend -->
  <rect x="84" y="258" width="12" height="11" rx="2" fill="#FAEEDA" stroke="#BA7517" stroke-width="0.5"/>
  <text x="100" y="268" font-size="10" fill="#5F5E5A">DR — Designated Router</text>
  <rect x="272" y="258" width="12" height="11" rx="2" fill="#E6F1FB" stroke="#378ADD" stroke-width="0.5"/>
  <text x="288" y="268" font-size="10" fill="#5F5E5A">BDR — Backup DR</text>
  <rect x="452" y="258" width="12" height="11" rx="2" fill="#E1F5EE" stroke="#1D9E75" stroke-width="0.5"/>
  <text x="468" y="268" font-size="10" fill="#5F5E5A">DROTHER</text>
</svg>
