<svg width="100%" viewBox="0 0 680 340" xmlns="http://www.w3.org/2000/svg" font-family="sans-serif">
  <defs>
    <marker id="arr2" viewBox="0 0 10 10" refX="8" refY="5" markerWidth="5" markerHeight="5" orient="auto-start-reverse">
      <path d="M2 1L8 5L2 9" fill="none" stroke="#888780" stroke-width="1.5" stroke-linecap="round" stroke-linejoin="round"/>
    </marker>
  </defs>
  <!-- Area 0 -->
  <rect x="210" y="48" width="260" height="100" rx="14" fill="none" stroke="#1D9E75" stroke-width="1.5" stroke-dasharray="8 5" opacity="0.8"/>
  <text x="340" y="40" text-anchor="middle" font-size="12" fill="#1D9E75" font-weight="600">Area 0 — Backbone</text>
  <!-- Area 1 -->
  <rect x="18" y="178" width="216" height="140" rx="14" fill="none" stroke="#378ADD" stroke-width="1.5" stroke-dasharray="8 5" opacity="0.8"/>
  <text x="126" y="170" text-anchor="middle" font-size="12" fill="#378ADD" font-weight="600">Area 1</text>
  <!-- Area 2 NSSA -->
  <rect x="446" y="178" width="216" height="140" rx="14" fill="none" stroke="#7F77DD" stroke-width="1.5" stroke-dasharray="8 5" opacity="0.8"/>
  <text x="554" y="170" text-anchor="middle" font-size="12" fill="#7F77DD" font-weight="600">Area 2 (NSSA)</text>
  <!-- Internet -->
  <rect x="270" y="8" width="140" height="36" rx="8" fill="#F1EFE8" stroke="#B4B2A9" stroke-width="0.8"/>
  <text x="340" y="30" text-anchor="middle" font-size="12" font-weight="600" fill="#444441">Internet / External</text>
  <!-- R1 ABR ASBR -->
  <rect x="216" y="66" width="110" height="58" rx="8" fill="#FAEEDA" stroke="#BA7517" stroke-width="1"/>
  <text x="271" y="90" text-anchor="middle" font-size="13" font-weight="600" fill="#633806">R1</text>
  <text x="271" y="108" text-anchor="middle" font-size="11" fill="#854F0B">ABR · ASBR</text>
  <!-- R2 ABR -->
  <rect x="354" y="66" width="110" height="58" rx="8" fill="#FAEEDA" stroke="#BA7517" stroke-width="1"/>
  <text x="409" y="90" text-anchor="middle" font-size="13" font-weight="600" fill="#633806">R2</text>
  <text x="409" y="108" text-anchor="middle" font-size="11" fill="#854F0B">ABR</text>
  <!-- R3 Area1 -->
  <rect x="30" y="202" width="110" height="50" rx="8" fill="#E6F1FB" stroke="#378ADD" stroke-width="0.8"/>
  <text x="85" y="223" text-anchor="middle" font-size="13" font-weight="600" fill="#042C53">R3</text>
  <text x="85" y="241" text-anchor="middle" font-size="11" fill="#185FA5">Internal Area 1</text>
  <!-- R4 Area1 -->
  <rect x="110" y="278" width="110" height="50" rx="8" fill="#E6F1FB" stroke="#378ADD" stroke-width="0.8"/>
  <text x="165" y="299" text-anchor="middle" font-size="13" font-weight="600" fill="#042C53">R4</text>
  <text x="165" y="317" text-anchor="middle" font-size="11" fill="#185FA5">Internal Area 1</text>
  <!-- R5 NSSA ASBR -->
  <rect x="460" y="202" width="120" height="50" rx="8" fill="#EEEDFE" stroke="#7F77DD" stroke-width="0.8"/>
  <text x="520" y="223" text-anchor="middle" font-size="13" font-weight="600" fill="#26215C">R5</text>
  <text x="520" y="241" text-anchor="middle" font-size="11" fill="#534AB7">NSSA ASBR</text>
  <!-- R6 Area2 -->
  <rect x="548" y="278" width="100" height="50" rx="8" fill="#EEEDFE" stroke="#7F77DD" stroke-width="0.8"/>
  <text x="598" y="299" text-anchor="middle" font-size="13" font-weight="600" fill="#26215C">R6</text>
  <text x="598" y="317" text-anchor="middle" font-size="11" fill="#534AB7">Internal Area 2</text>
  <!-- Lines -->
  <line x1="318" y1="26" x2="290" y2="66" stroke="#888780" stroke-width="1.2" marker-end="url(#arr2)"/>
  <line x1="326" y1="95" x2="354" y2="95" stroke="#1D9E75" stroke-width="1.5" marker-end="url(#arr2)"/>
  <text x="340" y="88" text-anchor="middle" font-size="10" fill="#1D9E75">10.0.12.0/30</text>
  <line x1="248" y1="124" x2="112" y2="202" stroke="#378ADD" stroke-width="1.2" marker-end="url(#arr2)"/>
  <line x1="108" y1="252" x2="128" y2="278" stroke="#378ADD" stroke-width="1.2" marker-end="url(#arr2)"/>
  <line x1="432" y1="124" x2="540" y2="202" stroke="#7F77DD" stroke-width="1.2" marker-end="url(#arr2)"/>
  <line x1="550" y1="252" x2="572" y2="278" stroke="#7F77DD" stroke-width="1.2" marker-end="url(#arr2)"/>
  <!-- Legend -->
  <rect x="18" y="324" width="12" height="10" rx="2" fill="#FAEEDA" stroke="#BA7517" stroke-width="0.5"/>
  <text x="34" y="333" font-size="10" fill="#5F5E5A">ABR/ASBR</text>
  <rect x="120" y="324" width="12" height="10" rx="2" fill="#E6F1FB" stroke="#378ADD" stroke-width="0.5"/>
  <text x="136" y="333" font-size="10" fill="#5F5E5A">Internal Area 1</text>
  <rect x="256" y="324" width="12" height="10" rx="2" fill="#EEEDFE" stroke="#7F77DD" stroke-width="0.5"/>
  <text x="272" y="333" font-size="10" fill="#5F5E5A">Internal Area 2 (NSSA)</text>
  <text x="446" y="333" font-size="10" fill="#888780">ABR = Area Border Router · ASBR = Autonomous System Boundary Router</text>
</svg>
